<svg xmlns="http://www.w3.org/2000/svg" viewBox="0 0 49.566 12">
  <defs>
    <style>
      .cls-1 {
        fill: #fff;
      }
    </style>
  </defs>
  <path id="cloudLogoSvija" class="cls-1" d="M31.965,2.743h-1.928v6.686h1.928V2.743ZM35.392,0h-5.354v1.543h5.354V0ZM35.392,2.743h-1.928v9.257h1.928V2.743ZM12.636,9.429H0v-1.543h10.708v-.596L0,6.249v-3.506h12.636v1.543H1.928v.596l10.708,1.041v3.506ZM49.566,2.743h-12.636v1.543h10.708v.596l-10.708,1.041v3.506h12.636V2.743ZM38.857,7.29l8.781-.854v1.45h-8.781v-.596ZM27.117,2.743l-3.965,4.907c-.12.148-.322.236-.542.236h-2.534c-.22,0-.423-.088-.542-.236l-3.965-4.907h-2.295l4.642,5.745c.476.589,1.284.941,2.161.941h2.534c.877,0,1.685-.352,2.161-.941l4.642-5.745h-2.295Z"/>
</svg>
